<?xml version="1.0" standalone="no"?>
<!DOCTYPE svg PUBLIC "-//W3C//DTD SVG 20010904//EN"
 "http://www.w3.org/TR/2001/REC-SVG-20010904/DTD/svg10.dtd">
<svg version="1.0" xmlns="http://www.w3.org/2000/svg"
 width="500.000000pt" height="500.000000pt" viewBox="0 0 500.000000 500.000000"
 preserveAspectRatio="xMidYMid meet">

<g transform="translate(0.000000,500.000000) scale(0.100000,-0.100000)"
fill="#000000" stroke="none">
<path d="M2260 4422 l5 -57 3 49 c2 27 0 52 -5 57 -4 4 -6 -18 -3 -49z"/>
<path d="M2192 4438 c-7 -7 -12 -17 -12 -24 0 -7 -6 -15 -12 -17 -7 -3 -3 -6
9 -6 16 -1 21 3 17 14 -4 8 -1 22 6 30 15 18 9 20 -8 3z"/>
<path d="M2605 4368 c-19 -23 -19 -23 0 -5 19 17 20 16 32 -20 l12 -38 -5 35
c-8 48 -17 54 -39 28z"/>
<path d="M2827 4356 c-4 -10 -1 -13 9 -9 15 6 19 23 5 23 -5 0 -11 -7 -14 -14z"/>
<path d="M2248 4343 c-8 -29 1 -34 38 -23 l29 8 -27 1 c-17 1 -28 7 -30 19 -3
14 -5 13 -10 -5z"/>
<path d="M2121 4339 c-1 -9 7 -23 17 -30 15 -12 16 -12 6 1 -6 8 -14 22 -17
30 -5 13 -6 12 -6 -1z"/>
<path d="M2359 4331 c23 -6 22 -8 -17 -25 -23 -11 -40 -21 -38 -23 6 -6 83 34
91 47 4 6 -7 10 -27 9 -29 -1 -30 -2 -9 -8z"/>
<path d="M2581 4328 c-1 -12 -7 -16 -18 -12 -17 5 -17 5 -1 -5 9 -6 19 -25 23
-41 4 -17 10 -30 14 -30 4 0 7 -12 6 -27 -1 -16 0 -19 2 -8 3 11 12 28 21 39
16 18 16 18 -4 12 -19 -6 -23 -1 -32 41 -5 26 -10 40 -11 31z"/>
<path d="M2870 4315 c13 -14 26 -25 28 -25 3 0 -5 11 -18 25 -13 14 -26 25
-28 25 -3 0 5 -11 18 -25z"/>
<path d="M2180 4285 c19 -10 20 -13 6 -24 -9 -8 -16 -18 -16 -23 0 -5 11 4 25
20 32 38 31 41 -6 40 -30 -1 -30 -2 -9 -13z"/>
<path d="M2264 4281 c8 -12 -16 -30 -51 -41 -24 -7 -25 -8 -6 -9 13 -1 37 12
55 29 26 23 29 29 15 30 -10 0 -16 -4 -13 -9z"/>
<path d="M2831 4283 c-1 -6 -4 -20 -7 -30 -5 -17 -5 -17 6 0 6 10 9 23 6 30
-3 9 -5 9 -5 0z"/>
<path d="M2910 4276 c0 -2 8 -10 18 -17 15 -13 16 -12 3 4 -13 16 -21 21 -21
13z"/>
<path d="M2661 4258 c-1 -10 -6 -18 -11 -18 -7 0 -7 -6 0 -19 5 -11 10 -32 11
-48 l1 -28 10 28 c6 18 7 40 0 65 -5 20 -10 29 -11 20z"/>
<path d="M2724 4218 l-29 -33 33 29 c17 17 32 31 32 33 0 8 -8 1 -36 -29z"/>
<path d="M2946 4227 c3 -10 9 -15 12 -12 3 3 0 11 -7 18 -10 9 -11 8 -5 -6z"/>
<path d="M2805 4219 c-4 -6 -5 -12 -2 -15 2 -3 7 2 10 11 7 17 1 20 -8 4z"/>
<path d="M2418 4213 c7 -3 16 -2 19 1 4 3 -2 6 -13 5 -11 0 -14 -3 -6 -6z"/>
<path d="M2451 4207 c2 -1 13 -9 24 -17 19 -14 19 -14 6 3 -7 9 -18 17 -24 17
-6 0 -8 -1 -6 -3z"/>
<path d="M2509 4198 c0 -7 -2 -21 -4 -31 -3 -14 0 -16 10 -7 7 6 11 20 8 30
-6 23 -13 26 -14 8z"/>
<path d="M1987 4184 c2 -7 11 -10 19 -7 19 7 18 10 -5 16 -13 3 -18 1 -14 -9z"/>
<path d="M2961 4184 c0 -11 3 -14 6 -6 3 7 2 16 -1 19 -3 4 -6 -2 -5 -13z"/>
<path d="M2341 4174 c0 -11 3 -14 6 -6 3 7 2 16 -1 19 -3 4 -6 -2 -5 -13z"/>
<path d="M2793 4155 c0 -22 2 -30 4 -17 2 12 2 30 0 40 -3 9 -5 -1 -4 -23z"/>
<path d="M3098 4183 c12 -2 30 -2 40 0 9 3 -1 5 -23 4 -22 0 -30 -2 -17 -4z"/>
<path d="M2592 4140 c0 -19 2 -27 5 -17 2 9 2 25 0 35 -3 9 -5 1 -5 -18z"/>
<path d="M3005 4140 c-21 -22 -31 -27 -37 -18 -5 9 -8 8 -8 -5 0 -10 -7 -32
-16 -49 -12 -24 -18 -28 -25 -17 -7 10 -8 5 -5 -15 6 -33 16 -47 16 -22 0 23
26 63 74 114 22 23 38 42 35 42 -3 0 -18 -14 -34 -30z"/>
<path d="M3171 4135 c-17 -20 -31 -41 -31 -47 0 -6 10 4 23 23 15 22 33 36 52
39 25 5 27 7 12 13 -25 9 -21 11 -56 -28z"/>
<path d="M2101 4157 c16 -12 79 -45 79 -42 0 7 -63 45 -74 45 -5 0 -7 -1 -5
-3z"/>
<path d="M2682 4125 c0 -16 2 -22 5 -12 2 9 2 23 0 30 -3 6 -5 -1 -5 -18z"/>
<path d="M2870 4105 c19 -19 36 -35 39 -35 3 0 -10 16 -29 35 -19 19 -36 35
-39 35 -3 0 10 -16 29 -35z"/>
<path d="M2662 4105 c0 -16 2 -22 5 -12 2 9 2 23 0 30 -3 6 -5 -1 -5 -18z"/>
<path d="M2354 4111 c7 -11 46 -35 46 -28 0 3 -12 12 -26 22 -15 9 -23 12 -20
6z"/>
<path d="M2254 4090 c0 -10 6 -16 13 -13 17 7 64 -24 61 -40 -1 -7 10 -24 25
-39 19 -19 27 -37 27 -62 0 -50 -16 -53 -58 -9 -20 22 -28 29 -18 16 11 -13
15 -23 10 -23 -5 0 0 -7 10 -15 11 -8 15 -15 10 -15 -14 0 -49 26 -49 37 0 21
-43 60 -73 66 -30 6 -32 5 -22 -13 6 -11 24 -27 41 -36 20 -10 28 -11 24 -4
-5 8 -3 11 6 8 8 -3 14 -9 14 -14 1 -27 32 -54 60 -54 36 0 55 15 55 45 0 16
2 17 10 5 15 -23 12 -2 -5 29 -8 16 -12 31 -9 33 2 3 -10 13 -28 21 -18 9 -27
17 -19 17 19 0 -24 47 -59 65 -23 12 -26 11 -26 -5z m-6 -127 c5 -17 -10 -16
-33 1 -18 13 -18 13 5 12 13 0 25 -7 28 -13z"/>
<path d="M2764 4088 l-19 -23 23 19 c21 18 27 26 19 26 -2 0 -12 -10 -23 -22z"/>
<path d="M2219 4089 c-2 -28 3 -64 12 -79 5 -9 6 4 2 35 -6 51 -12 70 -14 44z"/>
<path d="M2554 4090 c-6 -6 -31 -13 -55 -16 -24 -3 -46 -8 -49 -11 -3 -3 7 -4
21 -1 15 3 26 0 26 -6 0 -7 -25 -11 -66 -10 l-66 1 61 -4 62 -4 0 -39 c0 -22
5 -47 10 -56 6 -11 8 -1 5 33 -6 57 9 93 37 93 11 0 20 5 20 10 0 18 43 10 69
-12 l26 -23 -24 28 c-25 28 -59 35 -77 17z"/>
<path d="M2030 4081 c0 -6 4 -13 10 -16 6 -3 7 1 4 9 -7 18 -14 21 -14 7z"/>
<path d="M2682 4070 c0 -14 2 -19 5 -12 2 6 2 18 0 25 -3 6 -5 1 -5 -13z"/>
<path d="M2418 4073 c7 -3 16 -2 19 1 4 3 -2 6 -13 5 -11 0 -14 -3 -6 -6z"/>
<path d="M2580 4063 c8 -3 24 -10 35 -15 20 -9 20 -9 1 6 -11 9 -27 16 -35 15
-14 0 -14 -1 -1 -6z"/>
<path d="M3126 4053 c-6 -14 -5 -15 5 -6 7 7 10 15 7 18 -3 3 -9 -2 -12 -12z"/>
<path d="M2069 4027 l24 -27 -24 -1 c-22 -1 -22 -1 5 -9 17 -6 36 -5 45 0 9 5
11 10 4 10 -6 0 -26 12 -45 27 l-33 27 24 -27z"/>
<path d="M2672 4005 c37 -40 86 -133 89 -170 1 -11 1 -33 1 -49 -2 -23 -5 -26
-16 -17 -10 8 -16 9 -21 1 -3 -5 -3 -11 2 -11 37 -6 50 -4 51 7 7 54 1 81 -27
139 -25 50 -32 75 -27 98 4 20 3 27 -3 18 -7 -11 -11 -10 -21 5 -12 20 -11 13
7 -33 3 -11 -10 -4 -33 17 l-39 35 37 -40z"/>
<path d="M3196 4027 c3 -10 9 -15 12 -12 3 3 0 11 -7 18 -10 9 -11 8 -5 -6z"/>
<path d="M3075 4015 c-40 -18 -20 -18 30 0 22 8 31 14 20 14 -11 0 -33 -6 -50
-14z"/>
<path d="M1805 4009 c-4 -6 -4 -13 -1 -16 3 -4 6 -1 6 6 0 8 6 11 16 7 8 -3
12 -2 9 4 -8 13 -22 13 -30 -1z"/>
<path d="M1997 3993 c-4 -3 -7 -28 -7 -53 0 -34 5 -51 18 -61 14 -11 15 -11 5
1 -7 8 -13 23 -13 34 0 20 0 20 15 0 13 -16 13 -13 -1 19 -14 36 -14 40 3 53
15 11 16 13 2 14 -9 0 -19 -3 -22 -7z"/>
<path d="M3212 3975 c0 -16 2 -22 5 -12 2 9 2 23 0 30 -3 6 -5 -1 -5 -18z"/>
<path d="M2408 3983 c6 -2 18 -2 25 0 6 3 1 5 -13 5 -14 0 -19 -2 -12 -5z"/>
<path d="M1792 3950 c0 -19 2 -27 5 -17 2 9 2 25 0 35 -3 9 -5 1 -5 -18z"/>
<path d="M2043 3973 c4 -3 1 -13 -6 -21 -9 -11 -4 -11 16 2 33 22 34 26 5 26
-12 0 -18 -3 -15 -7z"/>
<path d="M2106 3971 c-4 -6 -3 -11 2 -11 5 0 29 -14 55 -30 25 -17 56 -33 68
-35 19 -4 17 1 -16 35 -22 22 -41 40 -44 40 -3 0 8 -13 24 -30 34 -36 24 -39
-19 -6 -17 13 -35 23 -40 24 -5 0 -12 6 -16 12 -5 9 -9 9 -14 1z"/>
<path d="M1867 3943 c3 -15 13 -23 27 -22 15 0 16 2 6 6 -8 4 -20 13 -27 22
-10 14 -11 13 -6 -6z"/>
<path d="M2896 3943 c-6 -14 -5 -15 5 -6 7 7 10 15 7 18 -3 3 -9 -2 -12 -12z"/>
<path d="M2904 3898 c-32 -35 -62 -62 -67 -60 -5 1 -6 -2 -2 -8 3 -5 1 -10 -4
-10 -6 0 -11 5 -11 11 0 6 -5 9 -11 7 -6 -2 -13 -25 -15 -51 -3 -36 0 -47 11
-47 8 0 15 -5 15 -11 0 -6 6 -9 13 -6 6 2 12 9 12 15 0 5 3 14 8 18 11 11 9
44 -3 44 -20 0 -9 17 56 88 36 40 63 72 61 72 -3 0 -31 -28 -63 -62z m-59
-137 c-3 -2 -16 -6 -28 -8 -15 -2 -18 0 -9 5 14 9 45 12 37 3z"/>
<path d="M3196 3923 c-6 -14 -5 -15 5 -6 7 7 10 15 7 18 -3 3 -9 -2 -12 -12z"/>
<path d="M2516 3907 c-16 -12 -16 -14 6 -32 l23 -20 -19 23 c-19 22 -19 22 3
22 13 0 45 -21 76 -51 33 -31 52 -44 51 -33 -1 9 -30 36 -63 60 -51 37 -63 41
-77 31z"/>
<path d="M1801 3894 c0 -11 3 -14 6 -6 3 7 2 16 -1 19 -3 4 -6 -2 -5 -13z"/>
<path d="M1918 3880 c4 -27 2 -29 -39 -32 -23 -2 -44 -8 -46 -14 -2 -7 4 -11
14 -10 10 0 17 -5 15 -12 -1 -8 2 -11 8 -7 6 4 9 13 6 21 -4 10 2 14 20 14 14
0 27 7 31 18 4 9 10 19 14 22 5 3 0 11 -10 17 -15 10 -17 7 -13 -17z"/>
<path d="M2088 3869 c26 -28 31 -39 20 -45 -9 -6 -6 -10 12 -15 39 -11 108
-10 115 1 4 6 -8 10 -30 10 -43 0 -68 12 -115 54 l-35 31 33 -36z"/>
<path d="M3149 3863 l-34 -38 38 34 c20 19 37 36 37 38 0 8 -8 0 -41 -34z"/>
<path d="M1555 3875 c4 -11 8 -25 8 -32 0 -7 4 -10 8 -8 3 3 12 -9 19 -25 7
-17 15 -29 17 -26 2 2 -4 19 -13 38 -10 18 -18 36 -19 40 0 4 -6 13 -14 20
-12 11 -13 10 -6 -7z"/>
<path d="M1670 3870 c0 -6 30 -25 68 -44 37 -18 66 -37 65 -42 -2 -12 63 -12
74 0 5 5 3 6 -5 2 -18 -11 -72 13 -72 31 0 8 -5 11 -11 7 -6 -3 -34 4 -62 17
l-51 24 40 6 39 6 -42 2 c-24 0 -43 -4 -43 -9z"/>
<path d="M3241 3844 c-12 -19 -16 -32 -11 -29 11 7 43 65 36 65 -2 0 -13 -16
-25 -36z"/>
<path d="M3286 3870 c7 -8 14 -24 17 -35 4 -19 5 -19 6 1 0 12 -7 28 -16 35
-16 12 -17 12 -7 -1z"/>
<path d="M1768 3863 c7 -3 16 -2 19 1 4 3 -2 6 -13 5 -11 0 -14 -3 -6 -6z"/>
<path d="M1800 3860 c0 -5 5 -10 10 -10 6 0 10 5 10 10 0 6 -4 10 -10 10 -5 0
-10 -4 -10 -10z"/>
<path d="M2251 3854 c0 -11 3 -14 6 -6 3 7 2 16 -1 19 -3 4 -6 -2 -5 -13z"/>
<path d="M1605 3847 c10 -8 25 -12 33 -10 16 7 14 9 -23 17 -28 7 -29 6 -10
-7z"/>
<path d="M2078 3848 c10 -13 10 -17 0 -21 -9 -4 -9 -6 -1 -6 20 -2 24 16 5 30
-15 13 -16 12 -4 -3z"/>
<path d="M2430 3856 c0 -2 8 -10 18 -17 15 -13 16 -12 3 4 -13 16 -21 21 -21
13z"/>
<path d="M2547 3834 c5 -14 0 -16 -34 -13 -27 3 -39 1 -36 -7 3 -7 17 -9 43
-4 37 7 39 6 56 -31 9 -22 21 -39 26 -39 5 0 7 -4 4 -9 -3 -4 3 -16 13 -26 28
-25 22 2 -11 45 -14 19 -33 50 -42 68 -17 33 -30 44 -19 16z"/>
<path d="M3181 3834 c0 -11 3 -14 6 -6 3 7 2 16 -1 19 -3 4 -6 -2 -5 -13z"/>
<path d="M2352 3820 c0 -14 2 -19 5 -12 2 6 2 18 0 25 -3 6 -5 1 -5 -13z"/>
<path d="M1697 3809 c6 -23 9 -24 16 -5 3 8 0 17 -7 19 -10 4 -12 -1 -9 -14z"/>
<path d="M2254 3816 c-3 -8 -4 -23 -1 -33 3 -12 5 -9 6 9 1 16 8 28 19 31 16
4 16 5 -1 6 -10 0 -20 -5 -23 -13z"/>
<path d="M1561 3793 c0 -17 6 -39 15 -47 21 -22 31 -20 11 2 -8 9 -17 31 -20
47 l-4 30 -2 -32z"/>
<path d="M1910 3810 c1 -12 20 -34 20 -23 0 8 21 13 58 15 l57 3 -68 5 c-37 3
-67 3 -67 0z"/>
<path d="M2372 3800 c0 -14 2 -19 5 -12 2 6 2 18 0 25 -3 6 -5 1 -5 -13z"/>
<path d="M3048 3813 c6 -2 18 -2 25 0 6 3 1 5 -13 5 -14 0 -19 -2 -12 -5z"/>
<path d="M2988 3803 c6 -2 18 -2 25 0 6 3 1 5 -13 5 -14 0 -19 -2 -12 -5z"/>
<path d="M2338 3789 c6 -7 12 -22 12 -33 0 -10 3 -16 7 -13 9 9 34 -13 27 -24
-3 -5 2 -12 10 -15 9 -3 13 -10 10 -15 -3 -5 2 -9 11 -9 9 0 33 -9 55 -20 44
-22 45 -47 3 -52 l-25 -3 23 -20 c18 -15 20 -15 10 -2 -12 15 -11 17 12 17 33
0 65 -29 45 -41 -11 -7 -11 -9 1 -9 9 0 12 -10 9 -35 -2 -21 0 -35 7 -35 7 0
10 17 10 43 -3 75 -15 106 -46 122 -28 15 -55 52 -45 62 3 3 22 -5 43 -17 l38
-22 -24 26 c-14 14 -30 26 -37 26 -21 0 -46 32 -41 51 3 11 0 22 -5 25 -12 7
-7 -29 10 -83 6 -18 7 -33 3 -33 -15 0 -101 81 -101 95 0 7 -8 16 -17 20 -15
5 -16 4 -5 -6z m205 -183 c4 -10 1 -13 -8 -9 -8 3 -12 9 -9 14 7 12 11 11 17
-5z"/>
<path d="M2703 3785 c0 -8 4 -12 9 -9 5 3 6 10 3 15 -9 13 -12 11 -12 -6z"/>
<path d="M3203 3780 c-3 -11 -13 -20 -23 -20 -25 0 -42 -25 -50 -74 -6 -38 -4
-42 14 -43 12 -1 15 1 9 4 -16 6 -17 57 -3 84 6 10 21 19 34 19 17 0 25 7 28
25 6 30 -2 34 -9 5z"/>
<path d="M2192 3758 c-7 -7 -12 -20 -12 -31 0 -12 -4 -16 -12 -11 -7 4 3 -11
22 -32 19 -21 39 -43 44 -49 5 -5 4 -1 -2 10 -6 11 -19 28 -30 38 -13 12 -18
26 -14 42 5 31 9 31 41 3 l26 -23 -23 26 c-18 20 -20 28 -10 32 9 4 9 6 -2 6
-9 1 -21 -4 -28 -11z"/>
<path d="M2460 3766 c0 -2 8 -10 18 -17 15 -13 16 -12 3 4 -13 16 -21 21 -21
13z"/>
<path d="M2922 3759 c6 -19 61 -28 121 -19 l52 8 -68 1 c-38 0 -78 6 -89 12
-16 9 -19 8 -16 -2z"/>
<path d="M1722 3730 c0 -19 2 -27 5 -17 2 9 2 25 0 35 -3 9 -5 1 -5 -18z"/>
<path d="M1792 3730 c0 -19 2 -27 5 -17 2 9 2 25 0 35 -3 9 -5 1 -5 -18z"/>
<path d="M2257 3738 c9 -10 23 -18 32 -18 14 0 14 -2 1 -10 -11 -8 -8 -9 13
-4 46 11 67 -17 68 -90 l1 -61 9 49 c8 52 -8 105 -34 107 -6 0 -3 5 8 10 16 7
14 8 -9 4 -30 -6 -89 12 -81 24 2 4 -2 8 -10 8 -13 0 -12 -4 2 -19z"/>
<path d="M3302 3740 c0 -14 2 -19 5 -12 2 6 2 18 0 25 -3 6 -5 1 -5 -13z"/>
<path d="M1944 3742 c3 -6 0 -16 -7 -24 -30 -30 -36 -52 -20 -70 13 -14 13
-21 3 -32 -6 -9 -10 -21 -7 -28 4 -9 6 -8 6 3 1 9 8 22 17 30 13 10 17 10 25
-2 7 -11 9 -11 9 4 0 10 7 20 15 23 8 4 15 10 15 16 0 5 -4 6 -10 3 -5 -3 -10
1 -10 9 0 10 9 16 21 16 18 0 19 3 9 14 -11 14 -40 12 -38 -2 0 -4 0 -20 -1
-36 -1 -25 -3 -27 -18 -15 -11 10 -14 10 -9 2 4 -7 3 -13 -2 -13 -10 0 -22 24
-22 43 0 7 4 6 10 -3 8 -13 10 -13 10 2 0 9 9 23 19 30 19 14 19 14 -1 27 -11
7 -17 8 -14 3z"/>
<path d="M2097 3730 c-4 -16 -11 -20 -31 -16 -14 3 -28 0 -31 -5 -4 -5 5 -9
19 -9 14 0 26 -6 26 -12 1 -7 9 1 18 19 14 27 20 30 37 22 20 -10 20 -10 1 5
-26 21 -33 20 -39 -4z"/>
<path d="M2868 3743 c7 -3 16 -2 19 1 4 3 -2 6 -13 5 -11 0 -14 -3 -6 -6z"/>
<path d="M1661 3723 c-1 -16 -6 -21 -16 -17 -8 4 -13 9 -10 13 2 4 -3 8 -11 8
-11 0 -9 -6 8 -24 19 -20 23 -21 31 -8 4 9 6 23 4 33 -4 13 -5 11 -6 -5z"/>
<path d="M1571 3693 c0 -24 3 -43 8 -43 5 0 7 -19 6 -42 -1 -27 -1 -31 2 -9
l4 33 27 -23 26 -24 -27 33 c-15 19 -29 43 -32 55 -2 12 -6 31 -8 42 -3 11 -5
1 -6 -22z"/>
<path d="M1898 3723 c7 -3 16 -2 19 1 4 3 -2 6 -13 5 -11 0 -14 -3 -6 -6z"/>
<path d="M2746 3715 c-11 -8 -31 -15 -45 -15 -42 0 -56 -15 -26 -28 28 -13 33
-30 11 -38 -14 -5 -17 -54 -3 -54 19 0 -40 -61 -70 -72 -18 -7 -33 -18 -33
-25 0 -7 -5 -13 -12 -13 -6 0 -9 -2 -6 -5 8 -8 53 11 51 21 -2 5 5 9 15 9 11
0 16 -6 14 -20 -6 -34 -24 -47 -55 -41 -23 5 -28 3 -24 -8 9 -23 -55 -57 -79
-43 -17 10 -17 12 11 19 26 6 25 7 -8 3 -32 -3 -40 0 -48 18 l-10 22 5 -22 c2
-12 -1 -24 -8 -26 -6 -2 -3 -3 7 -2 9 2 17 -1 17 -6 0 -5 8 -9 18 -10 15 0 14
-2 -3 -10 -19 -9 -18 -9 3 -5 13 3 26 -2 32 -12 8 -15 9 -15 10 -1 0 15 72 69
92 69 15 0 58 37 51 44 -3 3 -1 6 5 6 7 0 9 11 6 30 -4 17 -2 30 4 30 5 0 12
10 16 23 5 18 8 19 16 7 7 -10 8 -4 4 22 -4 25 -1 43 9 58 9 12 13 29 10 38
-4 8 -2 13 3 10 5 -3 17 5 27 18 21 28 19 29 -7 9z m-36 -41 c0 -14 -3 -15
-17 -3 -10 7 -20 15 -22 16 -2 2 5 3 17 3 14 0 22 -6 22 -16z"/>
<path d="M3090 3685 c13 -14 26 -25 28 -25 3 0 -5 11 -18 25 -13 14 -26 25
-28 25 -3 0 5 -11 18 -25z"/>
<path d="M2251 3679 c-1 -14 6 -34 15 -45 8 -10 12 -13 8 -5 -4 8 -11 28 -15
45 -6 29 -7 29 -8 5z"/>
<path d="M1806 3674 c-3 -8 -2 -12 4 -9 6 4 11 -13 11 -42 1 -27 4 -37 6 -23
7 39 23 48 23 14 0 -21 9 -38 28 -55 l27 -24 -24 27 c-16 19 -22 35 -19 52 5
24 -2 31 -24 27 -5 0 -8 10 -8 24 0 28 -15 34 -24 9z"/>
<path d="M3345 3679 c-16 -5 -38 -7 -47 -5 -11 3 -18 -2 -18 -11 0 -10 5 -13
18 -8 9 4 44 13 77 20 36 8 48 13 30 13 -16 0 -43 -4 -60 -9z"/>
<path d="M3470 3680 c0 -5 -26 -23 -57 -39 -32 -17 -54 -30 -50 -31 4 0 29 11
55 24 49 25 84 56 63 56 -6 0 -11 -4 -11 -10z"/>
<path d="M1711 3654 c0 -11 3 -14 6 -6 3 7 2 16 -1 19 -3 4 -6 -2 -5 -13z"/>
<path d="M1780 3649 c0 -11 4 -18 10 -14 5 3 7 12 3 20 -7 21 -13 19 -13 -6z"/>
<path d="M2570 3663 c8 -3 22 -11 30 -17 13 -10 13 -9 1 7 -7 9 -21 17 -30 16
-13 0 -14 -1 -1 -6z"/>
<path d="M2900 3650 c6 -11 13 -20 16 -20 2 0 0 9 -6 20 -6 11 -13 20 -16 20
-2 0 0 -9 6 -20z"/>
<path d="M2030 3650 c-14 -4 -19 -8 -12 -9 7 -1 10 -6 7 -12 -4 -6 2 -5 13 2
16 10 26 10 49 1 l28 -13 -25 21 c-14 11 -27 19 -30 19 -3 -1 -16 -5 -30 -9z"/>
<path d="M1680 3630 c6 -11 13 -20 16 -20 2 0 0 9 -6 20 -6 11 -13 20 -16 20
-2 0 0 -9 6 -20z"/>
<path d="M3212 3632 l27 -18 -22 -24 c-12 -14 -5 -9 15 10 41 37 37 50 -17 50
l-30 0 27 -18z m38 -2 c0 -5 -2 -10 -4 -10 -3 0 -8 5 -11 10 -3 6 -1 10 4 10
6 0 11 -4 11 -10z"/>
<path d="M2147 3619 c6 -22 5 -23 -12 -9 -14 11 -12 6 5 -17 13 -18 25 -33 27
-33 5 0 -10 65 -18 74 -4 5 -5 -2 -2 -15z"/>
<path d="M2628 3633 c7 -3 16 -2 19 1 4 3 -2 6 -13 5 -11 0 -14 -3 -6 -6z"/>
<path d="M2313 3595 c0 -22 2 -30 4 -17 2 12 2 30 0 40 -3 9 -5 -1 -4 -23z"/>
<path d="M3200 3614 c0 -8 5 -12 10 -9 6 4 8 11 5 16 -9 14 -15 11 -15 -7z"/>
<path d="M1720 3604 c0 -8 -5 -12 -11 -8 -6 3 -4 -5 5 -18 9 -14 14 -27 11
-30 -3 -2 4 -13 15 -23 20 -18 20 -18 9 13 -6 18 -15 34 -19 37 -4 3 -6 14 -3
25 3 11 3 20 -1 20 -3 0 -6 -7 -6 -16z"/>
<path d="M2393 3585 c0 -22 2 -30 4 -17 2 12 2 30 0 40 -3 9 -5 -1 -4 -23z"/>
<path d="M2568 3613 c7 -3 16 -2 19 1 4 3 -2 6 -13 5 -11 0 -14 -3 -6 -6z"/>
<path d="M3310 3604 c0 -8 -19 -24 -42 -34 -24 -11 -36 -20 -27 -20 9 0 32 11
51 24 19 13 41 25 49 28 9 3 6 7 -9 10 -15 4 -22 2 -22 -8z"/>
<path d="M2020 3606 c0 -2 7 -9 15 -16 13 -11 14 -10 9 4 -5 14 -24 23 -24 12z"/>
<path d="M2613 3603 c9 -2 25 -2 35 0 9 3 1 5 -18 5 -19 0 -27 -2 -17 -5z"/>
<path d="M1937 3593 c-4 -3 -7 -14 -7 -23 0 -10 -7 -23 -15 -30 -8 -7 -15 -18
-15 -24 0 -6 9 0 19 13 15 20 24 23 57 18 l39 -5 -38 11 c-30 8 -37 15 -34 29
5 19 4 22 -6 11z"/>
<path d="M2931 3584 c0 -11 3 -14 6 -6 3 7 2 16 -1 19 -3 4 -6 -2 -5 -13z"/>
<path d="M2289 3542 c-2 -28 -3 -52 -2 -52 12 0 20 43 14 70 -8 34 -8 33 -12
-18z"/>
<path d="M3151 3564 c0 -11 3 -14 6 -6 3 7 2 16 -1 19 -3 4 -6 -2 -5 -13z"/>
<path d="M1811 3556 c-8 -10 -9 -16 -1 -21 5 -3 10 2 10 12 1 17 1 17 15 -1
15 -20 11 -41 -6 -31 -5 4 -9 2 -9 -3 0 -5 15 -9 34 -10 l34 -1 -24 24 c-13
13 -24 29 -24 35 0 14 -15 12 -29 -4z"/>
<path d="M2480 3560 c-21 -7 -21 -8 -5 -9 11 0 27 4 35 9 18 11 5 11 -30 0z"/>
<path d="M2585 3560 c-3 -6 1 -7 9 -4 18 7 21 14 7 14 -6 0 -13 -4 -16 -10z"/>
<path d="M2121 3548 c-1 -20 -40 -25 -58 -7 -6 6 -19 9 -29 6 -16 -4 -16 -5 3
-6 12 0 25 -5 28 -11 3 -5 17 -10 30 -10 19 0 23 -4 19 -17 -5 -14 -4 -15 4
-4 6 8 15 10 23 5 11 -6 12 -5 3 7 -7 8 -14 23 -17 34 -4 16 -5 17 -6 3z"/>
<path d="M2261 3518 c-1 -28 -10 -61 -22 -82 -12 -20 -17 -36 -11 -36 5 0 12
7 16 15 3 9 16 20 28 25 14 5 17 9 8 9 -12 1 -15 10 -12 40 2 21 2 47 -1 57
-3 11 -5 -2 -6 -28z"/>
<path d="M2943 3510 c0 -30 2 -43 4 -27 2 15 2 39 0 55 -2 15 -4 2 -4 -28z"/>
<path d="M2430 3535 c-7 -8 -16 -12 -21 -9 -5 3 -9 -2 -9 -11 0 -9 -4 -13 -10
-10 -5 3 -10 -3 -10 -13 0 -11 -7 -25 -15 -32 -11 -9 -12 -17 -4 -31 6 -13 6
-25 -1 -39 -6 -11 -7 -20 -3 -20 4 0 -9 -17 -28 -37 -29 -32 -27 -31 16 7 28
25 47 47 43 48 -5 2 -8 11 -8 21 0 9 -5 22 -11 28 -7 7 -3 16 15 31 14 11 26
23 26 28 0 4 10 18 22 31 12 13 19 23 16 23 -3 0 -11 -7 -18 -15z"/>
<path d="M2510 3546 c0 -2 8 -10 18 -17 15 -13 16 -12 3 4 -13 16 -21 21 -21
13z"/>
<path d="M1591 3527 c-1 -17 -30 -55 -38 -49 -2 1 -3 0 -3 -3 0 -38 1 -39 13
-16 16 33 37 38 37 10 0 -12 3 -19 7 -16 3 4 13 1 22 -6 14 -10 14 -10 3 4 -6
9 -18 34 -26 55 -8 21 -15 31 -15 21z"/>
<path d="M3160 3523 c0 -12 7 -23 15 -27 13 -5 14 -2 4 17 -17 32 -19 33 -19
10z"/>
<path d="M1801 3504 c0 -11 3 -14 6 -6 3 7 2 16 -1 19 -3 4 -6 -2 -5 -13z"/>
<path d="M2022 3484 c-12 -8 -22 -21 -22 -27 0 -7 5 -4 11 6 5 9 17 17 24 17
8 0 15 5 15 10 0 13 -2 13 -28 -6z"/>
<path d="M2705 3471 c-3 -5 0 -13 6 -17 8 -4 9 -3 5 4 -4 7 -1 12 8 12 8 0 18
-4 21 -10 3 -5 11 -10 17 -10 7 0 6 6 -2 15 -14 17 -46 20 -55 6z"/>
<path d="M3164 3456 c-9 -20 -9 -23 2 -19 8 3 14 14 14 24 0 25 -3 24 -16 -5z"/>
<path d="M3191 3464 c0 -11 3 -14 6 -6 3 7 2 16 -1 19 -3 4 -6 -2 -5 -13z"/>
<path d="M2526 3454 c-17 -12 -17 -14 -4 -14 9 0 20 5 23 11 11 17 2 18 -19 3z"/>
<path d="M1514 3446 c-3 -8 -4 -25 -2 -38 3 -17 5 -13 9 15 5 38 2 47 -7 23z"/>
<path d="M2318 3453 c7 -3 16 -2 19 1 4 3 -2 6 -13 5 -11 0 -14 -3 -6 -6z"/>
<path d="M2990 3440 c8 -5 20 -10 25 -10 6 0 3 5 -5 10 -8 5 -19 10 -25 10 -5
0 -3 -5 5 -10z"/>
<path d="M1849 3418 c21 -25 22 -27 5 -27 -53 -1 -55 -3 -48 -35 l6 -31 -23
20 -24 20 22 -25 c12 -14 28 -41 36 -60 9 -19 16 -28 16 -20 1 8 -6 27 -13 43
-19 36 -10 34 34 -5 33 -31 33 -31 -4 9 -52 56 -38 83 40 74 6 -1 17 7 25 16
11 15 11 16 -1 6 -19 -18 -24 -17 -62 14 l-33 27 24 -26z"/>
<path d="M2130 3436 c0 -2 8 -10 18 -17 15 -13 16 -12 3 4 -13 16 -21 21 -21
13z"/>
<path d="M2930 3425 c0 -8 -7 -18 -15 -21 -8 -4 -12 -10 -9 -16 3 -5 13 0 21
12 14 20 16 20 39 5 34 -22 30 -10 -6 15 -25 18 -30 19 -30 5z"/>
<path d="M1560 3426 c0 -2 8 -10 18 -17 15 -13 16 -12 3 4 -13 16 -21 21 -21
13z"/>
<path d="M3063 3423 c30 -3 37 -8 38 -26 1 -17 2 -18 6 -4 5 20 7 20 36 6 20
-9 20 -9 5 4 -10 8 -15 17 -11 20 3 4 -20 6 -53 5 -42 -1 -48 -2 -21 -5z"/>
<path d="M3187 3410 c3 -8 6 -23 9 -34 7 -36 14 -29 14 15 0 29 -3 39 -9 30
-5 -7 -11 -9 -13 -5 -3 5 -3 2 -1 -6z"/>
<path d="M1941 3416 c2 -2 20 -6 39 -10 25 -4 31 -3 20 4 -14 9 -69 15 -59 6z"/>
<path d="M2640 3405 c0 -8 5 -15 10 -15 6 0 10 7 10 15 0 8 -4 15 -10 15 -5 0
-10 -7 -10 -15z"/>
<path d="M2800 3401 c0 -12 16 -38 36 -59 l37 -37 -32 38 c-35 42 -40 59 -13
50 18 -7 17 -5 -10 16 -16 12 -18 11 -18 -8z"/>
<path d="M2182 3397 c16 -13 16 -15 -5 -37 l-22 -23 27 19 c33 23 34 30 6 44
-20 10 -21 10 -6 -3z"/>
<path d="M1590 3390 c-12 -8 -12 -10 -1 -10 11 0 11 -3 1 -15 -11 -13 -10 -14
4 -9 9 3 16 15 16 25 0 22 0 22 -20 9z"/>
<path d="M1711 3386 c2 -2 15 -9 29 -15 24 -11 24 -11 6 3 -16 13 -49 24 -35
12z"/>
<path d="M2858 3383 c7 -3 16 -2 19 1 4 3 -2 6 -13 5 -11 0 -14 -3 -6 -6z"/>
<path d="M1527 3330 c3 -30 7 -56 8 -58 1 -2 12 14 24 35 20 36 20 36 1 14
l-20 -23 0 28 c0 16 -5 36 -10 44 -6 10 -7 -3 -3 -40z"/>
<path d="M2641 3350 c0 -23 2 -30 8 -22 7 11 9 10 15 -3 3 -9 11 -13 16 -10 6
4 18 1 26 -6 12 -10 13 -9 8 5 -5 13 0 16 24 16 17 0 33 4 36 9 3 5 -14 5 -40
0 -48 -9 -80 2 -88 31 -2 8 -4 -1 -5 -20z"/>
<path d="M2948 3359 c22 -25 22 -26 4 -42 -22 -20 -43 -22 -61 -4 -11 10 -11
8 0 -10 7 -12 17 -19 22 -16 5 3 13 -1 18 -8 7 -12 9 -12 9 0 0 8 9 24 20 36
l20 21 -27 25 -28 24 23 -26z"/>
<path d="M3003 3367 c0 -10 4 -17 7 -17 4 0 10 -22 14 -49 6 -48 7 -49 31 -37
14 6 25 14 25 18 0 4 8 5 18 2 13 -5 14 -4 3 4 -10 7 -21 6 -38 -5 -23 -15
-23 -15 -23 20 0 19 -8 45 -18 57 -15 18 -19 20 -19 7z"/>
<path d="M1863 3360 c16 -5 35 -14 43 -21 12 -10 13 -9 9 4 -6 15 -37 27 -65
26 -8 0 -2 -5 13 -9z"/>
<path d="M2299 3343 l-24 -28 30 25 c17 14 32 26 34 28 2 1 0 2 -6 2 -5 0 -20
-12 -34 -27z"/>
<path d="M1648 3335 c19 -37 115 -106 128 -92 2 2 -14 12 -37 22 -22 10 -54
35 -71 54 -16 20 -26 27 -20 16z"/>
<path d="M2389 3323 l-24 -28 28 24 c25 23 32 31 24 31 -2 0 -14 -12 -28 -27z"/>
<path d="M2802 3330 c0 -14 2 -19 5 -12 2 6 2 18 0 25 -3 6 -5 1 -5 -13z"/>
<path d="M2100 3320 c-32 -13 -38 -19 -22 -19 17 -1 22 -7 21 -28 0 -25 -1
-26 -9 -8 -6 14 -9 15 -9 5 -1 -9 10 -32 24 -53 25 -36 48 -47 59 -28 4 5 -4
7 -16 3 -21 -5 -22 -4 -8 14 10 14 10 16 0 7 -11 -10 -16 -9 -26 5 -17 23 -6
83 20 104 25 21 23 21 -34 -2z"/>
<path d="M2510 3311 c0 -12 4 -20 9 -16 5 3 17 -5 25 -17 9 -12 16 -17 16 -10
0 6 12 12 28 13 22 1 20 3 -13 10 -22 5 -46 17 -52 26 -12 15 -13 15 -13 -6z"/>
<path d="M1592 3300 c0 -14 2 -19 5 -12 2 6 2 18 0 25 -3 6 -5 1 -5 -13z"/>
<path d="M1946 3287 c8 -15 23 -30 32 -33 9 -3 26 -10 37 -16 18 -10 19 -9 6
5 -7 10 -22 17 -32 17 -10 0 -23 9 -29 19 -9 17 -6 20 22 23 31 3 31 4 -9 8
l-41 5 14 -28z"/>
<path d="M2250 3300 c-6 -11 -8 -20 -6 -20 3 0 10 9 16 20 6 11 8 20 6 20 -3
0 -10 -9 -16 -20z"/>
<path d="M2738 3313 c7 -3 16 -2 19 1 4 3 -2 6 -13 5 -11 0 -14 -3 -6 -6z"/>
<path d="M2682 3270 c0 -19 2 -27 5 -17 2 9 2 25 0 35 -3 9 -5 1 -5 -18z"/>
<path d="M2745 3280 c10 -11 20 -20 23 -20 3 0 -3 9 -13 20 -10 11 -20 20 -23
20 -3 0 3 -9 13 -20z"/>
<path d="M2790 3297 c0 -2 15 -14 33 -27 l32 -23 -24 26 c-21 23 -41 35 -41
24z"/>
<path d="M3128 3293 c7 -3 16 -2 19 1 4 3 -2 6 -13 5 -11 0 -14 -3 -6 -6z"/>
<path d="M2174 3268 l-19 -23 25 20 c14 11 27 21 29 22 2 2 0 3 -6 3 -5 0 -18
-10 -29 -22z"/>
<path d="M3210 3279 l-35 -6 42 -2 c48 -1 67 -18 26 -23 -22 -3 -19 -5 15 -9
49 -5 53 2 15 28 -21 14 -37 17 -63 12z"/>
<path d="M2334 3258 l-19 -23 23 19 c21 18 27 26 19 26 -2 0 -12 -10 -23 -22z"/>
<path d="M2998 3245 c-8 -19 -12 -35 -8 -35 4 0 10 -8 13 -19 3 -13 18 -20 52
-25 72 -11 86 -19 50 -28 -28 -7 -28 -7 5 -4 19 2 42 -1 51 -8 8 -6 3 1 -13
15 -22 20 -25 28 -15 38 10 11 8 11 -11 2 -15 -8 -33 -9 -56 -2 -19 5 -38 6
-41 3 -4 -4 -5 9 -1 28 5 28 4 31 -4 15 -8 -16 -9 -13 -6 18 3 20 4 37 2 37
-1 0 -9 -16 -18 -35z"/>
<path d="M2521 3254 c0 -11 3 -14 6 -6 3 7 2 16 -1 19 -3 4 -6 -2 -5 -13z"/>
<path d="M3134 3254 c-18 -14 -18 -14 6 -3 31 14 36 19 24 19 -6 0 -19 -7 -30
-16z"/>
<path d="M2204 3228 c-16 -17 -24 -28 -17 -24 6 3 13 2 15 -3 1 -4 10 7 19 25
9 19 16 34 15 34 -1 0 -15 -14 -32 -32z"/>
<path d="M2596 3247 c3 -10 9 -15 12 -12 3 3 0 11 -7 18 -10 9 -11 8 -5 -6z"/>
<path d="M2864 3233 c-4 -15 -3 -28 2 -30 6 -2 9 -20 8 -41 l-3 -37 8 35 c4
19 3 40 -2 47 -5 7 -6 21 -2 33 3 11 4 20 1 20 -3 0 -9 -12 -12 -27z"/>
<path d="M1617 3229 c12 -12 24 -21 27 -18 2 2 -8 13 -22 23 l-27 19 22 -24z"/>
<path d="M1841 3232 c-1 -7 -5 -11 -9 -8 -5 3 -9 -1 -9 -9 0 -8 6 -15 14 -15
12 0 18 -13 13 -35 -1 -5 7 -2 17 6 10 9 25 19 33 23 8 3 3 4 -12 1 -22 -4
-28 0 -36 23 -6 15 -11 21 -11 14z"/>
<path d="M1960 3226 l25 -15 -35 -1 c-23 -1 -29 -4 -18 -8 13 -5 15 -11 8 -22
-5 -8 -10 -19 -9 -25 0 -5 6 2 15 17 15 29 52 45 79 34 19 -7 20 -46 1 -46 -7
0 -20 -8 -27 -17 -11 -15 -11 -16 1 -5 20 17 38 15 43 -5 3 -10 5 7 6 37 l1
55 -37 0 c-21 1 -47 4 -58 9 -12 4 -10 1 5 -8z"/>
<path d="M3075 3214 c-18 -16 -22 -22 -9 -15 18 9 53 42 43 41 -2 -1 -17 -12
-34 -26z"/>
<path d="M2299 3213 c-13 -16 -12 -17 4 -4 16 13 21 21 13 21 -2 0 -10 -8 -17
-17z"/>
<path d="M2507 3216 c-4 -10 -1 -13 8 -10 19 8 31 -36 14 -47 -11 -7 -11 -9
-1 -9 7 0 10 -4 7 -10 -3 -5 -1 -10 4 -10 6 0 11 8 11 19 0 10 2 34 5 52 4 27
3 29 -3 9 l-8 -25 -8 23 c-8 25 -21 29 -29 8z"/>
<path d="M1540 3215 c0 -5 5 -17 10 -25 5 -8 10 -10 10 -5 0 6 -5 17 -10 25
-5 8 -10 11 -10 5z"/>
<path d="M1768 3213 c6 -2 18 -2 25 0 6 3 1 5 -13 5 -14 0 -19 -2 -12 -5z"/>
<path d="M1678 3203 c12 -2 30 -2 40 0 9 3 -1 5 -23 4 -22 0 -30 -2 -17 -4z"/>
<path d="M2691 3204 c0 -7 -12 -15 -26 -18 -14 -4 -25 -11 -25 -17 0 -6 -4 -8
-8 -5 -5 3 -9 -1 -9 -9 0 -10 6 -9 25 6 28 22 47 25 36 7 -5 -10 -4 -10 5 -2
7 7 11 20 8 30 -3 11 -5 14 -6 8z"/>
<path d="M2903 3170 c3 -11 1 -23 -4 -26 -5 -3 -9 -10 -9 -16 0 -6 25 -9 69
-6 38 2 67 0 65 -4 -3 -4 2 -8 10 -8 28 0 25 16 -5 27 -17 7 -27 7 -23 2 4 -6
-13 -9 -42 -7 -35 2 -48 7 -50 20 -1 11 3 15 12 11 8 -3 14 -1 14 5 0 9 -22
22 -37 22 -3 0 -3 -9 0 -20z"/>
<path d="M2965 3180 c4 -6 11 -8 16 -5 14 9 11 15 -7 15 -8 0 -12 -5 -9 -10z"/>
<path d="M2418 3141 c-51 -28 -60 -41 -29 -41 11 0 21 -8 23 -17 3 -13 6 -11
9 8 5 22 3 26 -15 23 -12 -3 0 5 27 17 26 12 47 25 47 30 0 13 -9 10 -62 -20z"/>
<path d="M2147 3146 c-5 -12 0 -16 16 -16 25 0 47 -17 47 -36 0 -18 20 -68 25
-62 2 2 -4 33 -14 69 -11 35 -20 56 -20 47 -1 -12 -6 -15 -18 -11 -10 4 -21
11 -24 16 -3 5 -9 2 -12 -7z"/>
<path d="M1745 3140 c3 -5 1 -19 -5 -31 -7 -11 -10 -23 -8 -25 3 -2 12 12 21
31 15 31 15 35 1 35 -8 0 -12 -4 -9 -10z"/>
<path d="M2261 3134 c0 -11 3 -14 6 -6 3 7 2 16 -1 19 -3 4 -6 -2 -5 -13z"/>
<path d="M1663 3133 c15 -2 37 -2 50 0 12 2 0 4 -28 4 -27 0 -38 -2 -22 -4z"/>
<path d="M2585 3129 c-4 -6 -5 -12 -2 -15 2 -3 7 2 10 11 7 17 1 20 -8 4z"/>
<path d="M2821 3128 c-1 -10 -12 -18 -28 -21 -16 -2 10 -4 57 -4 49 1 63 2 33
4 -38 3 -53 8 -56 21 -4 16 -5 16 -6 0z"/>
<path d="M1824 3112 c-6 -9 -11 -48 -11 -87 l-1 -70 13 85 c7 47 12 86 11 87
-1 1 -7 -6 -12 -15z"/>
<path d="M2611 3114 c0 -11 3 -14 6 -6 3 7 2 16 -1 19 -3 4 -6 -2 -5 -13z"/>
<path d="M1982 3088 c-2 -34 1 -38 21 -37 15 1 17 3 5 6 -10 2 -18 17 -21 36
-4 31 -4 31 -5 -5z"/>
<path d="M2479 3103 c-13 -16 -12 -17 4 -4 9 7 17 15 17 17 0 8 -8 3 -21 -13z"/>
<path d="M2251 3068 c0 -25 -4 -53 -7 -62 -3 -9 -2 -16 4 -16 16 0 19 22 12
75 l-7 50 -2 -47z"/>
<path d="M2634 3087 c-3 -9 -10 -15 -15 -11 -5 3 -9 2 -8 -3 1 -4 1 -21 0 -38
-1 -24 -3 -27 -12 -15 -9 12 -10 12 -7 1 9 -31 26 -20 37 24 l11 45 53 1 c28
1 55 1 60 0 4 0 7 3 7 7 0 5 -27 8 -60 8 -48 -1 -61 -4 -66 -19z"/>
<path d="M3061 3107 c2 -2 18 -11 34 -21 l30 -17 -24 20 c-13 12 -28 21 -34
21 -6 0 -8 -1 -6 -3z"/>
<path d="M2546 3092 c-2 -4 4 -8 15 -8 10 0 19 4 19 8 0 4 -6 8 -14 8 -8 0
-17 -4 -20 -8z"/>
<path d="M2965 3089 c19 -12 19 -12 0 -20 -19 -7 -19 -8 1 -8 50 -2 35 -65
-18 -79 -23 -6 -28 -10 -17 -14 37 -14 100 68 68 87 -6 4 -8 13 -5 21 3 8 1
14 -3 14 -5 0 -18 3 -28 6 -16 5 -16 4 2 -7z"/>
<path d="M3186 3087 c3 -10 9 -15 12 -12 3 3 0 11 -7 18 -10 9 -11 8 -5 -6z"/>
<path d="M1930 3083 c0 -8 -13 -13 -30 -13 -30 0 -40 -13 -18 -26 7 -4 8 -3 4
4 -5 9 7 12 41 13 26 0 41 3 33 6 -8 3 -18 11 -22 17 -5 8 -8 7 -8 -1z"/>
<path d="M2289 3063 l-24 -28 28 24 c25 23 32 31 24 31 -2 0 -14 -12 -28 -27z"/>
<path d="M2462 3050 c0 -19 2 -27 5 -17 2 9 2 25 0 35 -3 9 -5 1 -5 -18z"/>
<path d="M3010 3076 c0 -2 8 -10 18 -17 15 -13 16 -12 3 4 -13 16 -21 21 -21
13z"/>
<path d="M2581 3054 c0 -11 3 -14 6 -6 3 7 2 16 -1 19 -3 4 -6 -2 -5 -13z"/>
<path d="M2800 3066 c0 -2 9 -6 20 -9 11 -3 18 -1 14 4 -5 9 -34 13 -34 5z"/>
<path d="M3145 3050 c10 -11 20 -20 23 -20 3 0 -3 9 -13 20 -10 11 -20 20 -23
20 -3 0 3 -9 13 -20z"/>
<path d="M2046 3050 c-19 -6 -19 -7 -1 -14 10 -3 22 -3 28 3 12 12 -4 20 -27
11z"/>
<path d="M2770 3045 c-6 -8 -10 -19 -8 -24 1 -6 8 1 15 14 13 28 11 31 -7 10z"/>
<path d="M2916 3045 c-11 -8 -15 -15 -9 -15 6 0 16 7 23 15 16 19 11 19 -14 0z"/>
<path d="M3201 3055 c1 -19 18 -51 18 -35 0 8 -4 22 -9 30 -5 8 -9 11 -9 5z"/>
<path d="M1712 3020 c0 -14 2 -19 5 -12 2 6 2 18 0 25 -3 6 -5 1 -5 -13z"/>
<path d="M2412 3015 c0 -16 2 -22 5 -12 2 9 2 23 0 30 -3 6 -5 -1 -5 -18z"/>
<path d="M3051 3003 c2 -32 3 -34 6 -10 4 28 5 29 26 10 18 -15 18 -13 -2 10
-14 15 -26 27 -28 27 -2 0 -2 -17 -2 -37z"/>
<path d="M2111 3024 c4 -21 -2 -28 -11 -14 -5 8 -10 10 -10 4 0 -13 55 -67 67
-64 4 2 14 -10 22 -25 26 -54 -26 -83 -92 -50 -29 14 -30 14 -16 0 24 -25 86
-31 108 -11 18 16 19 16 25 -10 4 -14 9 -24 11 -22 2 2 -4 33 -15 69 -16 52
-24 65 -41 66 -25 2 -51 22 -43 34 8 14 26 11 18 -3 -4 -7 -4 -10 1 -6 4 4 14
3 21 -3 9 -8 11 -5 7 10 -3 12 -9 21 -13 21 -5 0 -16 3 -25 6 -9 4 -15 3 -14
-2z"/>
<path d="M1830 3011 c0 -6 4 -13 10 -16 6 -3 7 1 4 9 -7 18 -14 21 -14 7z"/>
<path d="M1756 2995 c-9 -26 -7 -32 5 -12 6 10 9 21 6 23 -2 3 -7 -2 -11 -11z"/>
<path d="M1960 2995 c7 -8 17 -12 22 -9 6 4 5 10 -3 15 -22 14 -33 10 -19 -6z"/>
<path d="M2875 3003 c11 -3 23 -10 27 -17 5 -7 8 -5 8 7 0 12 -7 17 -27 16
-22 -1 -23 -2 -8 -6z"/>
<path d="M2451 2984 c0 -11 3 -14 6 -6 3 7 2 16 -1 19 -3 4 -6 -2 -5 -13z"/>
<path d="M2782 2984 c10 -10 20 -16 22 -13 3 3 -5 11 -17 18 -21 13 -21 12 -5
-5z"/>
<path d="M3222 2975 c0 -16 2 -22 5 -12 2 9 2 23 0 30 -3 6 -5 -1 -5 -18z"/>
<path d="M2010 2983 c8 -3 24 -13 34 -22 18 -15 18 -15 5 7 -8 12 -23 22 -34
21 -14 0 -16 -2 -5 -6z"/>
<path d="M3190 2985 c0 -5 5 -17 10 -25 5 -8 10 -10 10 -5 0 6 -5 17 -10 25
-5 8 -10 11 -10 5z"/>
<path d="M1703 2940 c0 -25 2 -35 4 -22 2 12 2 32 0 45 -2 12 -4 2 -4 -23z"/>
<path d="M1865 2960 c10 -11 20 -20 23 -20 3 0 -3 9 -13 20 -10 11 -20 20 -23
20 -3 0 3 -9 13 -20z"/>
<path d="M2421 2964 c0 -11 3 -14 6 -6 3 7 2 16 -1 19 -3 4 -6 -2 -5 -13z"/>
<path d="M2467 2947 c-26 -30 -27 -31 -22 -7 l6 25 -15 -25 c-18 -31 -3 -39
26 -14 18 17 43 54 36 54 -2 0 -16 -15 -31 -33z"/>
<path d="M2906 2938 c-9 -12 -16 -28 -16 -35 0 -7 -6 -13 -12 -14 -21 -2 35
-17 62 -17 14 0 20 2 13 4 -7 3 -9 13 -6 22 5 15 4 15 -8 0 -20 -26 -45 -8
-30 21 13 24 27 27 34 9 4 -8 6 -9 6 -2 1 6 -5 17 -13 23 -11 10 -17 7 -30
-11z"/>
<path d="M3042 2940 c0 -14 2 -19 5 -12 2 6 2 18 0 25 -3 6 -5 1 -5 -13z"/>
<path d="M3140 2956 c0 -2 8 -10 18 -17 15 -13 16 -12 3 4 -13 16 -21 21 -21
13z"/>
<path d="M1821 2939 c-1 -21 29 -108 40 -115 5 -3 1 16 -10 43 -10 26 -21 57
-24 68 -3 13 -5 15 -6 4z"/>
<path d="M1900 2936 c0 -2 8 -10 18 -17 15 -13 16 -12 3 4 -13 16 -21 21 -21
13z"/>
<path d="M2000 2936 c0 -2 8 -10 18 -17 15 -13 16 -12 3 4 -13 16 -21 21 -21
13z"/>
<path d="M3215 2917 c4 -13 -1 -41 -9 -62 -9 -21 -14 -40 -11 -43 7 -8 35 64
35 92 0 14 -5 28 -10 31 -7 4 -9 -2 -5 -18z"/>
<path d="M1711 2878 c-1 -21 34 -104 49 -113 7 -4 5 4 -4 17 -9 13 -17 36 -18
50 -1 15 -5 25 -9 22 -4 -2 -10 6 -12 18 -2 13 -5 16 -6 6z"/>
<path d="M3021 2864 c0 -11 3 -14 6 -6 3 7 2 16 -1 19 -3 4 -6 -2 -5 -13z"/>
<path d="M2000 2845 c13 -14 26 -25 28 -25 3 0 -5 11 -18 25 -13 14 -26 25
-28 25 -3 0 5 -11 18 -25z"/>
<path d="M2804 2854 c-18 -14 -18 -14 6 -3 31 14 36 19 24 19 -6 0 -19 -7 -30
-16z"/>
<path d="M2744 2824 c-18 -14 -18 -14 6 -3 31 14 36 19 24 19 -6 0 -19 -7 -30
-16z"/>
<path d="M2858 2813 c6 -2 18 -2 25 0 6 3 1 5 -13 5 -14 0 -19 -2 -12 -5z"/>
<path d="M2081 2803 c-1 -6 -4 -20 -7 -30 -5 -17 -5 -17 6 0 6 10 9 23 6 30
-3 9 -5 9 -5 0z"/>
<path d="M2706 2803 c-17 -18 2 -23 86 -23 107 0 113 7 11 13 -39 3 -76 7 -81
11 -5 3 -12 3 -16 -1z"/>
<path d="M2808 2803 c6 -2 18 -2 25 0 6 3 1 5 -13 5 -14 0 -19 -2 -12 -5z"/>
<path d="M2938 2798 c11 -14 10 -17 -5 -21 -12 -3 -9 -5 9 -6 36 -1 44 -18 21
-44 -15 -19 -16 -20 0 -8 9 7 17 10 18 5 1 -13 18 29 18 46 1 13 0 13 -9 0 -8
-12 -10 -10 -11 10 0 14 -3 19 -6 12 -4 -10 -10 -9 -26 5 -17 14 -19 15 -9 1z"/>
<path d="M2044 2747 c0 -23 -4 -58 -8 -77 -4 -20 1 -12 13 20 16 44 17 58 7
77 -11 21 -12 20 -12 -20z"/>
<path d="M2260 2755 c13 -14 26 -25 28 -25 3 0 -5 11 -18 25 -13 14 -26 25
-28 25 -3 0 5 -11 18 -25z"/>
<path d="M1810 2708 c24 -27 45 -48 47 -48 8 0 0 9 -44 50 l-48 45 45 -47z"/>
<path d="M1851 2740 c0 -8 4 -22 9 -30 12 -18 12 -2 0 25 -6 13 -9 15 -9 5z"/>
<path d="M2300 2716 c0 -2 14 -14 30 -26 17 -12 30 -19 30 -16 0 2 -13 14 -30
26 -16 12 -30 19 -30 16z"/>
<path d="M1930 2706 c0 -2 8 -10 18 -17 15 -13 16 -12 3 4 -13 16 -21 21 -21
13z"/>
<path d="M2871 2703 c11 -3 15 -13 13 -31 -4 -26 -3 -26 4 -2 4 14 18 27 32
31 19 5 13 7 -20 7 -25 0 -38 -2 -29 -5z"/>
<path d="M2972 2690 c0 -14 2 -19 5 -12 2 6 2 18 0 25 -3 6 -5 1 -5 -13z"/>
<path d="M1883 2655 c0 -8 9 -23 20 -32 20 -18 20 -18 3 15 -18 36 -23 39 -23
17z"/>
<path d="M2370 2666 c0 -3 9 -10 20 -16 11 -6 20 -8 20 -6 0 3 -9 10 -20 16
-11 6 -20 8 -20 6z"/>
<path d="M2962 2640 c0 -14 2 -19 5 -12 2 6 2 18 0 25 -3 6 -5 1 -5 -13z"/>
<path d="M1990 2620 c6 -11 13 -20 16 -20 2 0 0 9 -6 20 -6 11 -13 20 -16 20
-2 0 0 -9 6 -20z"/>
<path d="M2896 2627 c3 -10 9 -15 12 -12 3 3 0 11 -7 18 -10 9 -11 8 -5 -6z"/>
<path d="M2480 2605 c14 -8 30 -14 35 -14 6 0 -1 6 -15 14 -14 8 -29 14 -35
14 -5 0 1 -6 15 -14z"/>
<path d="M1945 2590 c10 -11 20 -20 23 -20 3 0 -3 9 -13 20 -10 11 -20 20 -23
20 -3 0 3 -9 13 -20z"/>
<path d="M2938 2572 l-17 -37 19 24 c11 13 20 29 20 37 0 21 -3 17 -22 -24z"/>
<path d="M2016 2563 l7 -28 -24 20 c-17 14 -16 11 5 -13 17 -17 31 -32 33 -32
9 0 -3 58 -14 69 -11 10 -13 8 -7 -16z"/>
<path d="M2540 2580 c8 -5 20 -10 25 -10 6 0 3 5 -5 10 -8 5 -19 10 -25 10 -5
0 -3 -5 5 -10z"/>
<path d="M2630 2528 c-27 -41 -32 -54 -9 -25 12 16 31 33 43 37 20 8 20 9 1 9
-11 1 -27 -9 -35 -21z"/>
<path d="M2875 2542 c-4 -4 -34 -10 -68 -13 l-62 -6 68 -1 c37 -1 67 2 67 8 0
5 7 7 15 4 8 -4 15 -4 15 -1 0 9 -28 16 -35 9z"/>
<path d="M2698 2533 c7 -3 16 -2 19 1 4 3 -2 6 -13 5 -11 0 -14 -3 -6 -6z"/>
<path d="M2575 2440 c-9 -16 -13 -30 -11 -30 3 0 12 14 21 30 9 17 13 30 11
30 -3 0 -12 -13 -21 -30z"/>
<path d="M2846 2415 c-3 -9 -5 -29 -5 -43 1 -20 3 -17 9 13 8 43 7 57 -4 30z"/>
<path d="M2537 2365 c-24 -50 -20 -58 4 -12 11 22 19 41 17 43 -3 2 -12 -12
-21 -31z"/>
<path d="M2891 2353 c-1 -25 3 -33 17 -33 11 0 13 3 6 8 -7 4 -14 18 -17 32
-4 21 -4 20 -6 -7z"/>
<path d="M2204 2356 c-3 -8 -4 -29 -2 -48 3 -29 4 -27 8 15 5 48 3 58 -6 33z"/>
<path d="M2246 2350 c12 -14 29 -38 37 -55 9 -16 16 -26 17 -22 0 16 -29 63
-51 82 l-24 20 21 -25z"/>
<path d="M2840 2309 c0 -17 -4 -20 -20 -15 -50 15 -62 16 -31 2 47 -22 61 -20
61 9 0 14 -2 25 -5 25 -3 0 -5 -10 -5 -21z"/>
<path d="M2715 2311 c-3 -5 0 -13 6 -17 7 -4 9 -3 5 4 -3 6 2 13 11 15 16 4
16 5 1 6 -9 0 -19 -3 -23 -8z"/>
<path d="M2506 2295 c-9 -26 -7 -32 5 -12 6 10 9 21 6 23 -2 3 -7 -2 -11 -11z"/>
<path d="M2937 2285 c-4 -8 -17 -15 -29 -15 -38 0 -52 -14 -39 -38 14 -27 14
-35 -1 -26 -7 4 -8 3 -4 -4 12 -20 29 -13 23 9 -8 29 2 49 23 49 18 0 47 27
38 36 -3 3 -8 -2 -11 -11z"/>
<path d="M2740 2285 c0 -7 61 -37 66 -33 2 3 -12 12 -31 21 -19 9 -35 15 -35
12z"/>
<path d="M2190 2243 c0 -9 -8 -25 -17 -36 -18 -19 -17 -19 5 -6 19 12 33 59
17 59 -3 0 -5 -8 -5 -17z"/>
<path d="M2369 2252 c10 -7 12 -23 8 -58 -3 -33 -2 -43 5 -31 14 25 6 90 -12
94 -12 4 -13 3 -1 -5z"/>
<path d="M2485 2230 c-4 -17 -5 -34 -2 -36 2 -3 7 10 11 27 3 18 4 34 2 36 -2
3 -7 -10 -11 -27z"/>
<path d="M2821 2249 c-1 -9 7 -23 17 -30 15 -12 16 -12 6 1 -6 8 -14 22 -17
30 -5 13 -6 12 -6 -1z"/>
<path d="M2336 2235 c-3 -9 -10 -13 -16 -10 -5 3 -10 1 -10 -4 0 -6 4 -11 9
-11 12 0 35 29 29 36 -3 3 -8 -2 -12 -11z"/>
<path d="M2295 2180 c-10 -11 -14 -20 -9 -20 5 0 15 9 22 20 7 11 11 20 9 20
-2 0 -12 -9 -22 -20z"/>
<path d="M2152 2165 c0 -11 3 -29 8 -40 11 -25 11 1 0 35 -6 20 -8 21 -8 5z"/>
<path d="M2472 2155 c0 -16 2 -22 5 -12 2 9 2 23 0 30 -3 6 -5 -1 -5 -18z"/>
<path d="M2216 2149 c-14 -11 -26 -28 -25 -37 0 -13 3 -11 9 5 5 12 22 29 37
37 15 8 23 15 17 16 -6 0 -23 -9 -38 -21z"/>
<path d="M2354 2129 c-3 -6 -1 -16 4 -21 8 -8 11 -5 9 11 -1 24 -3 25 -13 10z"/>
<path d="M2179 2087 c5 -5 28 -7 52 -5 l44 3 -52 5 c-29 3 -48 1 -44 -3z"/>
<path d="M2285 2092 c-3 -3 -5 -8 -5 -12 0 -7 206 -7 214 1 3 3 -20 5 -52 5
-31 1 -78 3 -104 6 -26 3 -50 3 -53 0z"/>
<path d="M2340 2060 c-18 -12 -2 -12 25 0 13 6 15 9 5 9 -8 0 -22 -4 -30 -9z"/>
<path d="M2215 2050 c-3 -6 1 -7 9 -4 18 7 21 14 7 14 -6 0 -13 -4 -16 -10z"/>
<path d="M2530 2035 c40 -48 43 -51 32 -30 -6 11 -21 29 -34 40 -22 19 -22 19
2 -10z"/>
<path d="M2260 2030 c-8 -5 -10 -10 -5 -10 6 0 17 5 25 10 8 5 11 10 5 10 -5
0 -17 -5 -25 -10z"/>
<path d="M2570 1975 c0 -5 5 -17 10 -25 5 -8 10 -10 10 -5 0 6 -5 17 -10 25
-5 8 -10 11 -10 5z"/>
<path d="M2602 1870 c0 -14 2 -19 5 -12 2 6 2 18 0 25 -3 6 -5 1 -5 -13z"/>
<path d="M2612 1805 c0 -16 2 -22 5 -12 2 9 2 23 0 30 -3 6 -5 -1 -5 -18z"/>
<path d="M2623 1705 c0 -27 2 -38 4 -22 2 15 2 37 0 50 -2 12 -4 0 -4 -28z"/>
<path d="M4008 1653 c7 -3 16 -2 19 1 4 3 -2 6 -13 5 -11 0 -14 -3 -6 -6z"/>
<path d="M1601 1590 c-104 -70 -168 -127 -301 -265 -253 -264 -335 -343 -386
-368 -91 -46 -166 -48 -184 -4 -6 16 -9 18 -9 5 -1 -23 37 -48 74 -48 45 0
132 28 177 56 39 25 233 204 220 204 -4 0 56 63 133 141 142 143 255 241 333
286 41 24 54 43 30 43 -7 0 -46 -23 -87 -50z"/>
<path d="M3870 1603 c-43 -26 -113 -86 -211 -183 -140 -140 -141 -141 -15 -19
143 138 176 164 257 209 30 16 49 30 44 30 -6 0 -40 -17 -75 -37z"/>
<path d="M2634 1500 c0 -74 1 -105 3 -67 2 37 2 97 0 135 -2 37 -3 6 -3 -68z"/>
<path d="M3620 1575 c-7 -8 -17 -12 -23 -8 -5 3 -7 1 -3 -5 3 -6 -25 -47 -63
-91 -94 -109 -153 -186 -195 -257 -37 -60 -44 -84 -26 -84 6 0 10 5 10 11 0
18 79 124 189 253 113 133 141 169 141 185 0 16 -15 14 -30 -4z"/>
<path d="M3354 1398 l-19 -23 23 19 c12 11 22 21 22 23 0 8 -8 2 -26 -19z"/>
<path d="M2375 1401 c-6 -11 9 -23 19 -14 9 9 7 23 -3 23 -6 0 -12 -4 -16 -9z"/>
<path d="M1820 1367 c-8 -7 -28 -32 -44 -57 -43 -66 -80 -101 -118 -110 -33
-8 -33 -8 -4 -9 42 -1 89 32 132 95 21 31 46 60 56 65 10 5 18 14 18 19 0 14
-22 12 -40 -3z"/>
<path d="M1934 1311 c-49 -48 -91 -101 -78 -101 3 0 25 14 48 32 50 39 67 54
46 43 -8 -4 3 11 25 34 55 58 22 52 -41 -8z"/>
<path d="M2408 1296 c-32 -29 -58 -61 -58 -72 0 -13 18 -1 65 46 61 61 75 80
58 80 -5 0 -34 -24 -65 -54z"/>
<path d="M2074 1331 c3 -5 -10 -28 -29 -51 -40 -48 -46 -69 -11 -43 13 10 22
21 20 24 -2 4 5 14 16 24 21 19 27 55 9 55 -5 0 -8 -4 -5 -9z"/>
<path d="M3249 1303 l-34 -38 38 34 c20 19 37 36 37 38 0 8 -8 0 -41 -34z"/>
<path d="M4156 1326 c3 -8 -11 -33 -32 -56 -37 -40 -37 -41 -11 -35 46 12 32
-20 -38 -90 -97 -97 -183 -147 -198 -115 -3 6 -4 5 -3 -2 9 -45 125 10 218
103 67 68 84 104 53 115 -13 5 -12 10 5 31 21 27 27 63 10 63 -5 0 -7 -6 -4
-14z"/>
<path d="M1482 1298 c-22 -17 -38 -37 -35 -44 3 -9 16 -2 39 22 19 18 45 34
57 34 l22 0 -24 -19 c-25 -19 -37 -66 -20 -76 5 -4 9 2 9 12 0 9 18 35 40 58
l39 40 -44 2 c-35 1 -51 -5 -83 -29z"/>
<path d="M2267 1298 c-38 -35 -57 -81 -38 -93 7 -3 11 -3 10 2 -4 23 5 37 48
78 53 52 36 63 -20 13z"/>
<path d="M3644 1296 c-48 -48 -43 -66 6 -22 45 40 79 50 58 17 -7 -11 -15 -18
-19 -15 -4 2 -13 -4 -20 -13 -10 -12 -10 -14 -1 -9 8 5 12 -1 13 -21 l0 -28
10 25 c5 14 26 39 46 57 21 17 34 35 31 39 -4 4 -14 1 -22 -5 -10 -8 -16 -9
-21 -1 -12 20 -47 10 -81 -24z"/>
<path d="M3852 1296 c-21 -17 -37 -37 -35 -43 3 -7 19 2 39 22 19 19 45 35 57
35 l22 0 -24 -19 c-24 -18 -35 -67 -19 -77 4 -3 8 3 8 13 0 9 18 35 40 58 l39
40 -44 2 c-37 1 -52 -4 -83 -31z"/>
<path d="M2483 1293 c22 -6 21 -8 -4 -43 -15 -19 -19 -35 -14 -47 7 -17 8 -17
14 2 3 11 14 32 24 47 21 31 15 49 -16 47 -17 -1 -18 -2 -4 -6z"/>
<path d="M2093 1263 c-1 -10 -4 -29 -5 -42 -2 -15 3 -26 12 -28 12 -4 12 -3 1
5 -11 8 -10 14 4 35 9 15 14 31 10 37 -10 15 -21 12 -22 -7z"/>
<path d="M1615 1250 c-10 -11 -13 -20 -8 -20 13 0 38 29 31 35 -3 3 -13 -4
-23 -15z"/>
<path d="M3464 1238 l-19 -23 23 19 c21 18 27 26 19 26 -2 0 -12 -10 -23 -22z"/>
<path d="M3149 1213 c-13 -16 -12 -17 4 -4 9 7 17 15 17 17 0 8 -8 3 -21 -13z"/>
<path d="M3409 1193 c-13 -16 -12 -17 4 -4 16 13 21 21 13 21 -2 0 -10 -8 -17
-17z"/>
<path d="M1228 1173 c7 -3 16 -2 19 1 4 3 -2 6 -13 5 -11 0 -14 -3 -6 -6z"/>
<path d="M3354 1154 c-18 -14 -18 -15 4 -4 12 6 22 13 22 15 0 8 -5 6 -26 -11z"/>
<path d="M948 1123 c7 -3 16 -2 19 1 4 3 -2 6 -13 5 -11 0 -14 -3 -6 -6z"/>
<path d="M3904 1078 l-29 -33 33 29 c17 17 32 31 32 33 0 8 -8 1 -36 -29z"/>
<path d="M825 1080 c-3 -6 1 -7 9 -4 18 7 21 14 7 14 -6 0 -13 -4 -16 -10z"/>
<path d="M750 1019 c-12 -16 -21 -32 -18 -34 2 -2 13 12 26 31 28 42 21 45 -8
3z"/>
<path d="M1261 810 c-2 -45 -14 -65 -36 -57 -9 4 -14 3 -10 -3 3 -6 15 -10 25
-10 22 0 34 32 27 76 -4 27 -4 26 -6 -6z"/>
<path d="M1372 828 c-7 -7 -12 -24 -12 -38 0 -32 17 -50 46 -50 30 0 46 23 42
62 -2 24 -8 34 -23 36 -18 2 -18 2 -2 -8 28 -18 19 -80 -12 -80 -38 0 -54 46
-25 74 8 9 12 16 7 16 -5 0 -14 -5 -21 -12z"/>
<path d="M1554 801 c1 -51 24 -74 54 -55 11 8 17 25 18 55 l2 44 -7 -45 c-5
-40 -9 -45 -31 -45 -22 0 -26 5 -31 45 l-7 45 2 -44z"/>
<path d="M1733 790 c-1 -40 1 -47 6 -25 l6 29 18 -27 c9 -15 22 -27 28 -27 5
0 1 10 -10 22 -19 19 -19 22 -4 33 20 15 10 45 -14 44 -17 -1 -17 -2 0 -6 23
-6 22 -33 -2 -33 -12 0 -21 8 -24 23 -2 12 -4 -3 -4 -33z"/>
<path d="M1892 790 c1 -52 1 -53 7 -15 l6 40 25 -37 c14 -21 28 -38 33 -38 4
0 6 24 6 53 -2 50 -2 51 -8 12 l-6 -39 -32 39 -32 40 1 -55z"/>
<path d="M2069 838 c-1 -2 -3 -24 -4 -50 l-3 -48 36 1 c30 2 32 3 10 6 -35 5
-39 40 -5 46 l22 4 -22 2 c-13 0 -23 7 -23 15 0 8 10 17 23 19 19 4 18 4 -5 6
-16 0 -29 0 -29 -1z"/>
<path d="M2211 835 c0 -5 6 -19 14 -29 8 -11 15 -31 16 -45 1 -23 2 -22 9 6 4
18 13 40 20 48 7 9 10 18 7 21 -3 3 -11 -4 -17 -17 l-12 -22 -19 24 c-10 13
-19 20 -18 14z"/>
<path d="M2492 828 c-17 -17 -15 -63 2 -78 24 -19 60 -8 70 23 11 30 1 58 -25
65 -8 3 -6 -2 4 -10 35 -27 4 -90 -37 -75 -22 9 -21 63 2 76 9 6 12 11 7 11
-6 0 -16 -5 -23 -12z"/>
<path d="M2667 833 c-11 -10 -8 -93 3 -93 6 0 10 11 10 24 0 18 7 26 23 29
l22 4 -22 2 c-13 0 -23 7 -23 15 0 8 10 17 23 19 20 4 20 4 -4 6 -14 0 -29 -2
-32 -6z"/>
<path d="M2951 810 c-2 -45 -14 -65 -36 -57 -9 4 -14 3 -10 -3 3 -6 15 -10 25
-10 22 0 34 32 27 76 -4 27 -4 26 -6 -6z"/>
<path d="M3068 797 c-20 -46 -24 -73 -7 -44 12 21 59 23 59 2 0 -8 5 -15 10
-15 6 0 3 16 -6 38 -9 20 -18 43 -21 50 -9 21 -17 14 -35 -31z m42 -9 c0 -5
-9 -8 -20 -8 -18 0 -19 3 -9 21 9 17 13 19 20 8 5 -8 9 -17 9 -21z"/>
<path d="M3230 816 c0 -17 7 -26 25 -30 14 -4 25 -13 25 -21 0 -18 -31 -20
-49 -2 -10 10 -11 8 -5 -6 10 -26 58 -19 62 9 2 16 -4 23 -24 28 -20 5 -25 12
-21 26 3 11 1 20 -4 20 -5 0 -9 -11 -9 -24z"/>
<path d="M3260 836 c0 -2 7 -7 16 -10 8 -3 12 -2 9 4 -6 10 -25 14 -25 6z"/>
<path d="M3387 826 c-4 -10 -6 -34 -6 -54 l2 -37 7 40 6 40 18 -38 c19 -43 27
-42 47 5 l14 33 6 -40 c6 -39 6 -39 8 13 0 28 -2 52 -6 52 -5 0 -16 -19 -26
-43 l-18 -42 -23 44 c-18 34 -24 40 -29 27z"/>
<path d="M3593 790 c0 -30 2 -43 4 -27 2 15 2 39 0 55 -2 15 -4 2 -4 -28z"/>
<path d="M3700 788 c0 -28 2 -49 4 -47 8 9 13 99 5 99 -5 0 -9 -23 -9 -52z"/>
<path d="M3770 803 l-1 -38 -24 30 c-14 17 -25 26 -25 20 0 -5 14 -26 30 -45
l29 -35 1 53 c0 28 -2 52 -5 52 -3 0 -5 -17 -5 -37z"/>
</g>
</svg>
